####
#
# OBJ File Generated by Meshlab
#
####
# Object sphere.obj
#
# Vertices: 42
# Faces: 80
#
####
vn 0.396349 0.885303 -0.243198
v 1.245684 2.748150 -0.774414
vn 0.219185 -0.975565 0.015221
v 0.718320 -2.988846 0.151089
vn -0.937639 -0.217156 -0.271433
v -2.839479 -0.837894 -0.878511
vn -0.042816 0.232445 0.971667
v -0.105054 0.702024 3.004437
vn -0.218471 -0.464009 -0.858467
v -0.902595 -1.237737 -2.696967
vn -0.853315 -0.375256 0.361990
v -2.441652 -1.327599 1.374699
vn 0.610301 -0.722483 -0.324886
v 1.971318 -2.082123 -1.135779
vn -0.167184 0.447645 -0.878444
v -0.800019 1.378575 -2.668629
vn 0.396816 0.562765 -0.725144
v 1.388889 1.479405 -2.315067
vn 0.655715 -0.273785 -0.703620
v 2.075670 -0.905496 -2.061654
vn 0.503397 0.787485 0.355609
v 1.443204 2.468853 1.123488
vn -0.244746 -0.969577 0.004369
v -0.917412 -2.912466 -0.053994
vn -0.459628 -0.791816 0.402206
v -1.443204 -2.468853 1.123488
vn 0.995470 0.082779 -0.046763
v 3.073782 0.143679 0.014214
vn -0.696622 0.450789 -0.558128
v -2.085864 1.381467 -1.817796
vn 0.027759 -0.324469 0.945489
v 0.053994 -0.917412 2.912466
vn -0.360256 -0.552255 0.751818
v -1.123488 -1.443204 2.468853
vn 0.268196 -0.495887 -0.825934
v 0.820674 -1.453362 -2.569734
vn 0.432379 -0.591002 0.681003
v 1.557540 -1.770594 1.959033
vn -0.043698 0.997227 0.060236
v -0.173862 3.042348 0.562611
vn -0.151687 0.864627 -0.478970
v -0.364578 2.679735 -1.529313
vn -0.627922 0.777816 0.026759
v -1.939164 2.424600 0.000000
vn 0.060283 -0.858839 -0.508687
v 0.364578 -2.679735 -1.529313
vn 0.614765 -0.763865 0.196404
v 1.635894 -2.450232 0.972771
vn 0.015018 -0.825804 0.563757
v 0.039138 -2.510778 1.751457
vn -0.475344 -0.764973 -0.434585
v -1.392318 -2.431209 -1.238472
vn -0.737082 -0.675485 -0.020742
v -2.315877 -1.964976 0.023688
vn 0.821176 0.550253 -0.151299
v 2.588031 1.638228 -0.515703
vn 0.796548 0.124895 -0.591534
v 2.355537 0.332715 -1.942668
vn 0.901329 -0.389450 -0.189565
v 2.879832 -0.940881 -0.528384
vn 0.876624 -0.327962 0.352094
v 2.697864 -1.121424 0.851883
vn 0.853733 0.262244 0.449854
v 2.649543 0.792063 1.415217
vn -0.941095 0.174564 0.289600
v -2.991624 0.618072 0.663876
vn -0.601981 0.474327 0.642365
v -1.716174 1.464498 2.115234
vn -0.918106 0.317308 -0.237482
v -2.841333 0.931602 -0.700881
vn -0.663120 -0.431898 -0.611340
v -2.048124 -1.390239 -1.780179
vn 0.561303 -0.116443 0.819378
v 1.762965 -0.848823 2.401281
vn -0.594005 -0.013065 0.804355
v -1.937700 -0.413919 2.397477
vn 0.395251 0.437438 0.807728
v 1.411137 1.244640 2.496549
vn -0.119461 0.764944 0.632921
v -0.566301 2.565111 1.665609
vn 0.159182 0.025925 -0.986909
v 0.562611 0.173862 -3.042348
vn -0.552548 0.003975 -0.833472
v -1.719009 -0.093510 -2.535645
# 42 vertices, 42 vertices normals

vt 0.000000 0.000000
f 30/1/30 29/1/29 14/1/14
f 2/1/2 24/1/24 25/1/25
f 12/1/12 26/1/26 23/1/23
f 25/1/25 13/1/13 12/1/12
f 28/1/28 32/1/32 14/1/14
f 38/1/38 17/1/17 16/1/16
f 23/1/23 7/1/7 2/1/2
f 6/1/6 38/1/38 33/1/33
f 22/1/22 34/1/34 40/1/40
f 28/1/28 29/1/29 9/1/9
f 10/1/10 7/1/7 18/1/18
f 12/1/12 27/1/27 26/1/26
f 3/1/3 27/1/27 6/1/6
f 33/1/33 38/1/38 34/1/34
f 3/1/3 42/1/42 36/1/36
f 16/1/16 25/1/25 19/1/19
f 4/1/4 40/1/40 34/1/34
f 8/1/8 21/1/21 9/1/9
f 40/1/40 11/1/11 20/1/20
f 9/1/9 29/1/29 41/1/41
f 24/1/24 30/1/30 31/1/31
f 41/1/41 29/1/29 10/1/10
f 21/1/21 22/1/22 20/1/20
f 14/1/14 32/1/32 31/1/31
f 20/1/20 11/1/11 1/1/1
f 1/1/1 11/1/11 28/1/28
f 2/1/2 7/1/7 24/1/24
f 2/1/2 25/1/25 12/1/12
f 12/1/12 13/1/13 27/1/27
f 30/1/30 14/1/14 31/1/31
f 32/1/32 39/1/39 37/1/37
f 3/1/3 6/1/6 33/1/33
f 3/1/3 15/1/15 42/1/42
f 4/1/4 16/1/16 37/1/37
f 16/1/16 17/1/17 25/1/25
f 4/1/4 39/1/39 40/1/40
f 42/1/42 8/1/8 41/1/41
f 5/1/5 18/1/18 23/1/23
f 40/1/40 39/1/39 11/1/11
f 11/1/11 32/1/32 28/1/28
f 22/1/22 33/1/33 34/1/34
f 1/1/1 9/1/9 21/1/21
f 8/1/8 15/1/15 21/1/21
f 8/1/8 42/1/42 15/1/15
f 15/1/15 35/1/35 22/1/22
f 24/1/24 19/1/19 25/1/25
f 24/1/24 31/1/31 19/1/19
f 25/1/25 17/1/17 13/1/13
f 13/1/13 6/1/6 27/1/27
f 18/1/18 7/1/7 23/1/23
f 26/1/26 5/1/5 23/1/23
f 27/1/27 3/1/3 26/1/26
f 26/1/26 3/1/3 36/1/36
f 36/1/36 42/1/42 5/1/5
f 20/1/20 22/1/22 40/1/40
f 30/1/30 10/1/10 29/1/29
f 14/1/14 29/1/29 28/1/28
f 31/1/31 32/1/32 37/1/37
f 33/1/33 35/1/35 3/1/3
f 35/1/35 15/1/15 3/1/3
f 37/1/37 16/1/16 19/1/19
f 41/1/41 8/1/8 9/1/9
f 41/1/41 18/1/18 5/1/5
f 39/1/39 32/1/32 11/1/11
f 1/1/1 28/1/28 9/1/9
f 17/1/17 6/1/6 13/1/13
f 17/1/17 38/1/38 6/1/6
f 26/1/26 36/1/36 5/1/5
f 21/1/21 20/1/20 1/1/1
f 24/1/24 7/1/7 30/1/30
f 23/1/23 2/1/2 12/1/12
f 39/1/39 4/1/4 37/1/37
f 4/1/4 38/1/38 16/1/16
f 38/1/38 4/1/4 34/1/34
f 42/1/42 41/1/41 5/1/5
f 21/1/21 15/1/15 22/1/22
f 22/1/22 35/1/35 33/1/33
f 19/1/19 31/1/31 37/1/37
f 18/1/18 41/1/41 10/1/10
f 7/1/7 10/1/10 30/1/30
# 80 faces, 1 coords texture

# End of File
