####
#
# OBJ File Generated by Meshlab
#
####
# Object nCube.obj
#
# Vertices: 8
# Faces: 12
#
####
vn 0.577350 0.577350 0.577350
v 3.000000 3.000000 3.000000
vn -0.333333 0.666667 0.666667
v -3.000000 3.000000 3.000000
vn 0.666667 -0.333333 0.666667
v 3.000000 -3.000000 3.000000
vn -0.666667 -0.666667 0.333333
v -3.000000 -3.000000 3.000000
vn 0.666667 0.666667 -0.333333
v 3.000000 3.000000 -3.000000
vn -0.666667 0.333333 -0.666667
v -3.000000 3.000000 -3.000000
vn 0.333333 -0.666667 -0.666667
v 3.000000 -3.000000 -3.000000
vn -0.577350 -0.577350 -0.577350
v -3.000000 -3.000000 -3.000000
# 8 vertices, 8 vertices normals

vt 0.0 0.0
f 1/1/1 2/1/2 3/1/3
f 4/1/4 3/1/3 2/1/2
f 1/1/1 3/1/3 5/1/5
f 7/1/7 5/1/5 3/1/3
f 1/1/1 5/1/5 2/1/2
f 6/1/6 2/1/2 5/1/5
f 8/1/8 6/1/6 7/1/7
f 5/1/5 7/1/7 6/1/6
f 8/1/8 7/1/7 4/1/4
f 3/1/3 4/1/4 7/1/7
f 8/1/8 4/1/4 6/1/6
f 2/1/2 6/1/6 4/1/4
# 12 faces, 1 coords texture

# End of File
